name Walk9.mot
datacolumns 19
datarows 27
range 3.66400000 3.69000000
endheader

                time	   L_ground_force_vx	   L_ground_force_vy	   L_ground_force_vz	   L_ground_force_px	   L_ground_force_py	   L_ground_force_pz	   R_ground_force_vx	   R_ground_force_vy	   R_ground_force_vz	   R_ground_force_px	   R_ground_force_py	   R_ground_force_pz	   L_ground_torque_x	   L_ground_torque_y	   L_ground_torque_z	   R_ground_torque_x	   R_ground_torque_y	   R_ground_torque_z	
          3.66400000	          0.00000000	          0.00000000	         -0.00000000	         -0.00000000	          0.00000000	         -0.00000000	          5.78506351	         41.53840386	         -0.80446753	          0.28346477	          0.00000000	          0.09080226	          0.00000000	          0.00000000	          0.00000000	          0.00000000	         -1.36263701	          0.00000000	
          3.66500000	          0.00000000	          0.00000000	         -0.00000000	         -0.00000000	          0.00000000	         -0.00000000	          5.07424724	         38.08052400	         -0.75157095	          0.27526699	          0.00000000	          0.08792604	          0.00000000	          0.00000000	          0.00000000	          0.00000000	         -1.22519348	          0.00000000	
          3.66600000	          0.00000000	          0.00000000	         -0.00000000	         -0.00000000	          0.00000000	         -0.00000000	          4.40348943	         34.77806918	         -0.70115671	          0.26684856	          0.00000000	          0.08499611	          0.00000000	          0.00000000	          0.00000000	          0.00000000	         -1.09468132	          0.00000000	
          3.66700000	          0.00000000	          0.00000000	         -0.00000000	         -0.00000000	          0.00000000	         -0.00000000	          3.77224639	         31.62872590	         -0.65297179	          0.25822876	          0.00000000	          0.08201927	          0.00000000	          0.00000000	          0.00000000	          0.00000000	         -0.97103694	          0.00000000	
          3.66800000	          0.00000000	          0.00000000	         -0.00000000	         -0.00000000	          0.00000000	         -0.00000000	          3.17982796	         28.63008924	         -0.60681187	          0.24942983	          0.00000000	          0.07900308	          0.00000000	          0.00000000	          0.00000000	          0.00000000	         -0.85417260	          0.00000000	
          3.66900000	          0.00000000	          0.00000000	         -0.00000000	         -0.00000000	          0.00000000	         -0.00000000	          2.62540281	         25.77968167	         -0.56252237	          0.24047715	          0.00000000	          0.07595591	          0.00000000	          0.00000000	          0.00000000	          0.00000000	         -0.74397757	          0.00000000	
          3.67000000	          0.00000000	          0.00000000	         -0.00000000	         -0.00000000	          0.00000000	         -0.00000000	          2.10800731	         23.07496168	         -0.51999704	          0.23139946	          0.00000000	          0.07288693	          0.00000000	          0.00000000	          0.00000000	          0.00000000	         -0.64031957	          0.00000000	
          3.67100000	          0.00000000	          0.00000000	         -0.00000000	         -0.00000000	          0.00000000	         -0.00000000	          1.62655891	         20.51331908	         -0.47917356	          0.22222906	          0.00000000	          0.06980615	          0.00000000	          0.00000000	          0.00000000	          0.00000000	         -0.54304664	          0.00000000	
          3.67200000	          0.00000000	          0.00000000	         -0.00000000	         -0.00000000	          0.00000000	         -0.00000000	          1.17987680	         18.09204812	         -0.44002472	          0.21300155	          0.00000000	          0.06672432	          0.00000000	          0.00000000	          0.00000000	          0.00000000	         -0.45198971	          0.00000000	
          3.67300000	          0.00000000	          0.00000000	         -0.00000000	         -0.00000000	          0.00000000	         -0.00000000	          0.76671192	         15.80828977	         -0.40254371	          0.20375415	          0.00000000	          0.06365250	          0.00000000	          0.00000000	          0.00000000	          0.00000000	         -0.36696651	          0.00000000	
          3.67400000	          0.00000000	          0.00000000	         -0.00000000	         -0.00000000	          0.00000000	         -0.00000000	          0.38577882	         13.65897022	         -0.36672837	          0.19452305	          0.00000000	          0.06060133	          0.00000000	          0.00000000	          0.00000000	          0.00000000	         -0.28778566	          0.00000000	
          3.67500000	          0.00000000	          0.00000000	         -0.00000000	         -0.00000000	          0.00000000	         -0.00000000	          0.03577646	         11.64078070	         -0.33257242	          0.18534177	          0.00000000	          0.05758059	          0.00000000	          0.00000000	          0.00000000	          0.00000000	         -0.21424961	          0.00000000	
          3.67600000	          0.00000000	          0.00000000	         -0.00000000	         -0.00000000	          0.00000000	         -0.00000000	         -0.28460242	          9.75019825	         -0.30006384	          0.17624075	          0.00000000	          0.05459910	          0.00000000	          0.00000000	          0.00000000	          0.00000000	         -0.14615631	          0.00000000	
          3.67700000	          0.00000000	          0.00000000	         -0.00000000	         -0.00000000	          0.00000000	         -0.00000000	         -0.57666591	          7.98351727	         -0.26918540	          0.16724757	          0.00000000	          0.05166479	          0.00000000	          0.00000000	          0.00000000	          0.00000000	         -0.08330030	          0.00000000	
          3.67800000	          0.00000000	          0.00000000	         -0.00000000	         -0.00000000	          0.00000000	         -0.00000000	         -0.84171787	          6.33687901	         -0.23991519	          0.15838703	          0.00000000	          0.04878474	          0.00000000	          0.00000000	          0.00000000	          0.00000000	         -0.02547379	          0.00000000	
          3.67900000	          0.00000000	          0.00000000	         -0.00000000	         -0.00000000	          0.00000000	         -0.00000000	         -1.08105334	          4.80629920	         -0.21222706	          0.14968135	          0.00000000	          0.04596522	          0.00000000	          0.00000000	          0.00000000	          0.00000000	          0.02753233	          0.00000000	
          3.68000000	          0.00000000	          0.00000000	         -0.00000000	         -0.00000000	          0.00000000	         -0.00000000	         -1.29595447	          3.38769378	         -0.18609114	          0.14115025	          0.00000000	          0.04321173	          0.00000000	          0.00000000	          0.00000000	          0.00000000	          0.07592761	          0.00000000	
          3.68100000	          0.00000000	          0.00000000	         -0.00000000	         -0.00000000	          0.00000000	         -0.00000000	         -1.48768669	          2.07690279	         -0.16147421	          0.13281112	          0.00000000	          0.04052907	          0.00000000	          0.00000000	          0.00000000	          0.00000000	          0.11992121	          0.00000000	
          3.68200000	          0.00000000	          0.00000000	         -0.00000000	         -0.00000000	          0.00000000	         -0.00000000	         -1.65749543	          0.86971257	         -0.13834014	          0.12467916	          0.00000000	          0.03792134	          0.00000000	          0.00000000	          0.00000000	          0.00000000	          0.15972113	          0.00000000	
          3.68300000	          0.00000000	          0.00000000	         -0.00000000	         -0.00000000	          0.00000000	         -0.00000000	         -1.80660303	         -0.23812374	         -0.11665027	          0.11676748	          0.00000000	          0.03539205	          0.00000000	          0.00000000	          0.00000000	          0.00000000	          0.19553355	          0.00000000	
          3.68400000	          0.00000000	          0.00000000	         -0.00000000	         -0.00000000	          0.00000000	         -0.00000000	         -1.93620614	         -1.25086738	         -0.09636377	          0.10908725	          0.00000000	          0.03294406	          0.00000000	          0.00000000	          0.00000000	          0.00000000	          0.22756217	          0.00000000	
          3.68500000	          0.00000000	          0.00000000	         -0.00000000	         -0.00000000	          0.00000000	         -0.00000000	         -2.04747339	         -2.17277661	         -0.07743798	          0.10164781	          0.00000000	          0.03057973	          0.00000000	          0.00000000	          0.00000000	          0.00000000	          0.25600768	          0.00000000	
          3.68600000	          0.00000000	          0.00000000	         -0.00000000	         -0.00000000	          0.00000000	         -0.00000000	         -2.14154330	         -3.00809085	         -0.05982871	          0.09445679	          0.00000000	          0.02830087	          0.00000000	          0.00000000	          0.00000000	          0.00000000	          0.28106725	          0.00000000	
          3.68700000	          0.00000000	         -0.00000000	         -0.00000000	         -0.00000000	          0.00000000	         -0.00000000	         -2.21952261	         -3.76101632	         -0.04349058	          0.08752026	          0.00000000	          0.02610882	          0.00000000	          0.00000000	          0.00000000	          0.00000000	          0.30293405	          0.00000000	
          3.68800000	          0.00000000	         -0.00000000	         -0.00000000	         -0.00000000	          0.00000000	         -0.00000000	         -2.28248473	         -4.43571293	         -0.02837725	          0.08084278	          0.00000000	          0.02400449	          0.00000000	          0.00000000	          0.00000000	          0.00000000	          0.32179693	          0.00000000	
          3.68900000	          0.00000000	         -0.00000000	         -0.00000000	         -0.00000000	          0.00000000	         -0.00000000	         -2.33146857	         -5.03628249	         -0.01444168	          0.07442756	          0.00000000	          0.02198837	          0.00000000	          0.00000000	          0.00000000	          0.00000000	          0.33784002	          0.00000000	
          3.69000000	          0.00000000	         -0.00000000	         -0.00000000	         -0.00000000	          0.00000000	         -0.00000000	         -2.36747752	         -5.56675819	         -0.00163640	          0.06827654	          0.00000000	          0.02006059	          0.00000000	          0.00000000	          0.00000000	          0.00000000	          0.35124244	          0.00000000	
